<svg xmlns="http://www.w3.org/2000/svg" width="1050" height="23" viewBox="0 0 105000 2300"><path fill="#f1f1f1" d="M105001 0c-824 0-1254 459-1599 827-312 333-537 573-1026 573s-714-240-1026-573c-346-368-776-827-1599-827s-1253 459-1599 827c-312 333-537 573-1026 573s-714-240-1026-573c-345-368-775-827-1599-827-823 0-1253 459-1599 827-311 333-537 573-1026 573s-714-240-1025-573c-346-368-776-827-1599-827-824 0-1254 459-1600 827-311 333-536 573-1025 573s-715-240-1026-573c-346-368-776-827-1599-827-824 0-1254 459-1600 827-311 333-536 573-1025 573s-714-240-1026-573c-346-368-776-827-1599-827s-1254 459-1599 827c-312 333-537 573-1026 573s-714-240-1026-573c-345-368-775-827-1599-827-823 0-1253 459-1599 827-311 333-537 573-1026 573s-714-240-1025-573c-346-368-776-827-1599-827s-1254 459-1599 827c-312 333-537 573-1026 573s-714-240-1026-573c-345-368-775-827-1599-827-823 0-1253 459-1599 827-311 333-536 573-1025 573-490 0-715-240-1026-573-346-368-776-827-1599-827-824 0-1254 459-1599 827-312 333-537 573-1026 573s-715-240-1026-573c-346-368-776-827-1599-827s-1254 459-1599 827c-312 333-537 573-1026 573s-714-240-1026-573c-345-368-776-827-1599-827s-1253 459-1599 827c-311 333-537 573-1026 573s-714-240-1026-573c-345-368-776-827-1599-827s-1253 459-1599 827c-312 333-537 573-1026 573s-714-240-1026-573c-346-368-776-827-1599-827s-1254 459-1599 827c-312 333-537 573-1026 573s-714-240-1026-573c-346-368-776-827-1599-827-824 0-1254 459-1599 827-312 333-537 573-1026 573-490 0-715-240-1026-573-346-368-776-827-1600-827-823 0-1253 459-1599 827-311 333-537 573-1026 573s-714-240-1026-573c-345-368-775-827-1599-827-823 0-1253 459-1599 827-311 333-536 573-1026 573-489 0-714-240-1026-573-345-368-776-827-1599-827s-1253 459-1599 827c-312 333-537 573-1026 573-490 0-715-240-1026-573-346-368-776-827-1600-827-823 0-1253 459-1599 827-312 333-537 573-1026 573-490 0-715-240-1026-573C6505 459 6075 0 5251 0c-823 0-1253 459-1599 827-312 333-537 573-1027 573-489 0-714-240-1026-573C1253 459 823 0 0 0v900c489 0 714 240 1026 572 346 369 776 828 1599 828 824 0 1254-459 1600-828 312-332 537-572 1026-572 490 0 715 240 1026 572 346 369 776 828 1600 828 823 0 1253-459 1599-828 312-332 537-572 1026-572 490 0 715 240 1026 572 346 369 777 828 1600 828s1253-459 1599-828c312-332 537-572 1026-572s715 240 1026 572c346 369 776 828 1599 828 824 0 1254-459 1600-828 311-332 536-572 1025-572 490 0 715 240 1026 572 346 369 776 828 1599 828s1254-459 1599-828c312-332 537-572 1026-572 490 0 715 240 1026 572 346 369 776 828 1600 828 823 0 1253-459 1599-828 311-332 537-572 1026-572s714 240 1026 572c345 369 776 828 1599 828s1253-459 1599-828c312-332 537-572 1026-572s714 240 1026 572c345 369 776 828 1599 828s1253-459 1599-828c312-332 537-572 1026-572s714 240 1026 572c346 369 776 828 1599 828s1254-459 1599-828c312-332 537-572 1026-572s714 240 1026 572c346 369 776 828 1599 828s1253-459 1599-828c312-332 537-572 1026-572s714 240 1026 572c345 369 775 828 1599 828 823 0 1253-459 1599-828 312-332 537-572 1026-572s714 240 1025 572c346 369 776 828 1600 828 823 0 1253-459 1599-828 311-332 536-572 1025-572s714 240 1026 572c346 369 776 828 1599 828s1253-459 1599-828c312-332 537-572 1026-572s714 240 1025 572c346 369 776 828 1599 828 824 0 1254-459 1600-828 311-332 536-572 1025-572s715 240 1026 572c346 369 776 828 1599 828s1253-459 1599-828c311-332 536-572 1026-572 489 0 714 240 1026 572 345 369 775 828 1599 828 823 0 1253-459 1599-828 311-332 537-572 1026-572s714 240 1026 572c345 369 775 828 1599 828 823 0 1253-459 1599-828 311-332 536-572 1025-572s715 240 1026 572c346 369 776 828 1599 828 824 0 1254-459 1599-828 312-332 537-572 1026-572s714 240 1026 572c346 369 776 828 1599 828 824 0 1254-459 1599-828 312-332 537-572 1026-572s714 240 1026 572c345 369 776 828 1599 828s1253-459 1599-828c311-332 537-572 1026-572V0z"/></svg>